<svg width="32" height="32" viewBox="0 0 32 32" fill="none" xmlns="http://www.w3.org/2000/svg">
  <rect width="32" height="32" rx="8" fill="url(#paint0_linear_1_2)"/>
  <g filter="url(#filter0_d_1_2)">
    <path d="M9.5 10.5C9.5 9.39543 10.3954 8.5 11.5 8.5H20.5C21.6046 8.5 22.5 9.39543 22.5 10.5V21.5C22.5 22.6046 21.6046 23.5 20.5 23.5H11.5C10.3954 23.5 9.5 22.6046 9.5 21.5V10.5Z" fill="white" fill-opacity="0.95"/>
    <rect x="12.5" y="11.5" width="7" height="2" rx="1" fill="url(#paint1_linear_1_2)"/>
    <rect x="12.5" y="15.5" width="7" height="2" rx="1" fill="url(#paint2_linear_1_2)"/>
    <rect x="12.5" y="19.5" width="4" height="2" rx="1" fill="url(#paint3_linear_1_2)"/>
  </g>
  <defs>
    <filter id="filter0_d_1_2" x="7.5" y="7.5" width="17" height="18" filterUnits="userSpaceOnUse" color-interpolation-filters="sRGB">
      <feFlood flood-opacity="0" result="BackgroundImageFix"/>
      <feColorMatrix in="SourceAlpha" type="matrix" values="0 0 0 0 0 0 0 0 0 0 0 0 0 0 0 0 0 0 127 0" result="hardAlpha"/>
      <feOffset dy="1"/>
      <feGaussianBlur stdDeviation="1"/>
      <feColorMatrix type="matrix" values="0 0 0 0 0.4 0 0 0 0 0.1 0 0 0 0 0.5 0 0 0 0.12 0"/>
      <feBlend mode="normal" in2="BackgroundImageFix" result="effect1_dropShadow_1_2"/>
      <feBlend mode="normal" in="SourceGraphic" in2="effect1_dropShadow_1_2" result="shape"/>
    </filter>
    <linearGradient id="paint0_linear_1_2" x1="0" y1="0" x2="32" y2="32" gradientUnits="userSpaceOnUse">
      <stop stop-color="#A259C6"/>
      <stop offset="1" stop-color="#3B1B6B"/>
    </linearGradient>
    <linearGradient id="paint1_linear_1_2" x1="12.5" y1="12.5" x2="19.5" y2="12.5" gradientUnits="userSpaceOnUse">
      <stop stop-color="#A259C6"/>
      <stop offset="1" stop-color="#3B1B6B"/>
    </linearGradient>
    <linearGradient id="paint2_linear_1_2" x1="12.5" y1="16.5" x2="19.5" y2="16.5" gradientUnits="userSpaceOnUse">
      <stop stop-color="#A259C6"/>
      <stop offset="1" stop-color="#3B1B6B"/>
    </linearGradient>
    <linearGradient id="paint3_linear_1_2" x1="12.5" y1="20.5" x2="16.5" y2="20.5" gradientUnits="userSpaceOnUse">
      <stop stop-color="#A259C6"/>
      <stop offset="1" stop-color="#3B1B6B"/>
    </linearGradient>
  </defs>
</svg>