<?xml version="1.0" encoding="UTF-8"?><svg id="Layer_3" xmlns="http://www.w3.org/2000/svg" viewBox="0 0 273.12 237.17"><defs><style>.cls-1{fill:#463cff;}</style></defs><path class="cls-1" d="M273.12,208.97l-26.52,26.53-62.7-62.7-39.38,39.37c-16.4,16.4-37.53,25.01-59.32,25.01-10.98,0-22.13-2.18-32.93-6.66C20.02,217.16,0,187.19,0,152.3V0h37.51v48.16h33.12v35.48h-33.12v68.66c0,23.23,15.03,37.73,29.1,43.56,14.07,5.82,34.96,6.2,51.38-10.22l39.37-39.37-62.69-62.69,26.52-26.53,151.92,151.92ZM273.12,83.58l-26.52-26.53-45.64,45.63,26.53,26.53,45.64-45.63Z"/></svg>