<svg width="20" height="20" viewBox="0 0 20 20" fill="none" xmlns="http://www.w3.org/2000/svg">
<path d="M16.8102 0H3.18979C1.42812 0 0 1.42812 0 3.18979V16.8102C0 18.5719 1.42812 20 3.18979 20H16.8102C18.5719 20 20 18.5719 20 16.8102V3.18979C20 1.42812 18.5719 0 16.8102 0Z" fill="black"/>
<path d="M15.1999 17.2717C15.1999 17.2717 16.0824 15.8022 14.0176 14.7496C14.0176 14.7496 14.4173 16.3211 13.4817 17.7778H12.5205C12.5205 17.7778 12.478 17.4716 12.8841 17.3163C13.7347 16.9888 13.7688 15.5917 13.52 15.4237C12.7608 14.9133 12.4609 14.4774 12.6566 13.3674C12.6566 13.3674 11.3424 13.848 9.70921 13.6417C9.62415 13.6311 9.54122 13.6715 9.49869 13.7459C9.4115 13.8969 9.235 14.1691 8.94366 14.4838C8.94366 14.4838 8.86923 15.3535 8.67359 15.9724C8.67359 15.9724 8.74802 17.0314 8.48008 17.7757H7.33175C7.33175 17.7757 7.34451 17.3142 7.89741 17.2547C8.57365 17.1824 7.7762 15.0792 7.7762 15.0792C7.7762 15.0792 7.74217 16.2254 7.05318 17.7714H6.17492C6.17492 17.7714 6.17492 17.3248 6.62149 17.2143C7.34664 17.0335 7.02341 15.7278 6.90645 15.0027C6.78949 14.2754 6.62575 12.9165 6.03244 12.1616C5.43914 11.4067 5.13718 11.4131 5.10102 10.0266C5.10102 10.0266 4.59704 9.23127 4.77779 8.18289C4.77779 8.18289 4.4014 6.92398 4.96705 5.06327C4.96705 5.06327 3.62947 4.79107 3.60395 4.45934C3.5763 4.1276 3.67625 3.7512 4.03351 3.7193C4.39076 3.68741 4.91389 3.63424 4.91602 3.25785C4.91602 2.88145 4.46094 2.38172 4.74377 2.23499C5.00746 2.09676 5.31368 2.98778 5.5157 2.84743C5.64754 2.75599 5.15631 2.27539 5.47742 2.34131C5.60927 2.36896 6.72782 2.73897 7.10634 4.69113C7.48486 6.64328 7.3275 7.94684 7.87402 7.94684C8.42054 7.94684 10.9192 7.8554 12.378 8.21266C13.8368 8.56991 13.8963 9.12919 14.5364 8.96758C15.1765 8.80596 15.9123 8.41893 16.3291 9.83733C16.697 11.0856 15.6635 10.9282 15.6635 11.3195C15.6635 11.7108 15.5253 12.3169 15.6826 12.6869C15.84 13.0569 15.7528 13.95 15.891 14.4561C16.0293 14.9623 16.1951 15.4216 15.8825 16.0744C15.8825 16.0744 16.0356 17.1738 15.6911 17.7778H14.8618C14.8618 17.7778 14.8022 17.4333 15.2063 17.2717H15.1999Z" fill="url(#paint0_linear_97_5)"/>
<defs>
<linearGradient id="paint0_linear_97_5" x1="3.00001" y1="2.64966" x2="15.0659" y2="18.7687" gradientUnits="userSpaceOnUse">
<stop stop-color="#37D7FA"/>
<stop offset="0.4" stop-color="#4B72FE"/>
<stop offset="0.68" stop-color="#FF8DF2"/>
<stop offset="1" stop-color="#FF8705"/>
</linearGradient>
</defs>
</svg>
