<svg xmlns="http://www.w3.org/2000/svg" xmlns:xlink="http://www.w3.org/1999/xlink" width="36" height="36" viewBox="0 0 36 36">
  <defs>
    <clipPath id="clip-path">
      <rect id="Rectangle_1" data-name="Rectangle 1" width="36" height="34.901" fill="none"/>
    </clipPath>
    <clipPath id="clip-Custom_Size_1">
      <rect width="36" height="36"/>
    </clipPath>
  </defs>
  <g id="Custom_Size_1" data-name="Custom Size – 1" clip-path="url(#clip-Custom_Size_1)">
    <rect width="36" height="36" fill="#fff"/>
    <g id="Group_2" data-name="Group 2" transform="translate(0 1.099)">
      <g id="Group_1" data-name="Group 1" clip-path="url(#clip-path)">
        <path id="Path_1" data-name="Path 1" d="M205.331,156.119a.083.083,0,0,0,.083.083h6.865c2.391,0,3.7-1.309,3.7-3.384,0-1.985-1.444-3.249-3.564-3.249h-7a.083.083,0,0,0-.083.083Z" transform="translate(-186.594 -135.921)" fill="#5300c9"/>
        <path id="Path_2" data-name="Path 2" d="M205.414,29h6.414a3.4,3.4,0,0,0,3.465-2.186,3.344,3.344,0,0,0-3.249-4.311h-6.63a.083.083,0,0,0-.083.083v6.332a.083.083,0,0,0,.083.083" transform="translate(-186.594 -20.45)" fill="#5300c9"/>
        <path id="Path_3" data-name="Path 3" d="M26.993,26.281H11.375a.083.083,0,0,1-.083-.083V0A18.118,18.118,0,1,0,35,23.371c-1.649,1.827-4.327,2.911-8,2.911" fill="#5300c9"/>
        <path id="Path_4" data-name="Path 4" d="M346.156,102.615a17.982,17.982,0,0,0-1.566-4.98A5.489,5.489,0,0,1,341.3,99.4v.181a6.167,6.167,0,0,1,4.856,3.038" transform="translate(-310.156 -88.726)" fill="#5300c9"/>
      </g>
    </g>
  </g>
</svg>
